<svg xmlns="http://www.w3.org/2000/svg" width="32" height="32" viewBox="0 0 32 32"><defs><clipPath id="a"><path fill="#fff" stroke="#707070" d="M4875-147h32v32h-32z" data-name="Rectangle 21378"/></clipPath></defs><g clip-path="url(#a)" data-name="Mask Group 67" transform="translate(-4875 147)"><g data-name="Group 28375"><path fill="#d23533" d="M4901.241-138.619a1.5 1.5 0 0 0-1.495-1.381h-17.492a1.5 1.5 0 0 0-1.5 1.381l-1.754 22a1.5 1.5 0 0 0 1.376 1.615h21.119A1.5 1.5 0 0 0 4903-116.5v-.119Z" data-name="Path 25662"/><path fill="#f1e8ff" stroke="rgba(0,0,0,0)" stroke-miterlimit="10" d="M4884-136.5a1.5 1.5 0 1 1 1.5 1.5 1.5 1.5 0 0 1-1.5-1.5Z" data-name="Path 25676"/><g data-name="CIRCLE"><path fill="#f1e8ff" stroke="rgba(0,0,0,0)" stroke-miterlimit="10" d="M4895-136.5a1.5 1.5 0 1 1 1.5 1.5 1.5 1.5 0 0 1-1.5-1.5Z" data-name="Path 25677"/></g><g data-name="Group 22071"><path fill="#f1e8ff" stroke="rgba(0,0,0,0)" stroke-miterlimit="10" d="M4885.25-128.247a.5.5 0 0 0 0 1h1.751a.5.5 0 0 0 0-1Z" data-name="Path 25678"/><g data-name="LWPOLYLINE"><path fill="#f1e8ff" stroke="rgba(0,0,0,0)" stroke-miterlimit="10" d="M4888.951-132a.5.5 0 0 1 1 0v1.75a.5.5 0 0 1-1 0Z" data-name="Path 25679"/></g><g data-name="LWPOLYLINE"><path fill="#f1e8ff" stroke="rgba(0,0,0,0)" stroke-miterlimit="10" d="M4892.852-130.413a.5.5 0 0 0-.708-.707l-1.238 1.238a.5.5 0 0 0 .707.707Z" data-name="Path 25680"/></g><g data-name="LWPOLYLINE"><path fill="#f1e8ff" stroke="rgba(0,0,0,0)" stroke-miterlimit="10" d="M4886.155-130.413a.5.5 0 0 1 .707-.707l1.238 1.238a.5.5 0 0 1-.707.707Z" data-name="Path 25681"/></g><g data-name="LWPOLYLINE"><path fill="#f1e8ff" stroke="rgba(0,0,0,0)" stroke-miterlimit="10" d="M4886.155-125.082a.5.5 0 0 0 .707.707l1.238-1.238a.5.5 0 0 0-.707-.708Z" data-name="Path 25682"/></g><path fill="#f1e8ff" stroke="rgba(0,0,0,0)" stroke-miterlimit="10" d="m4897.104-122.269-2.15-2.15.991-.541a.5.5 0 0 0-.05-.9l-6.517-2.663a.5.5 0 0 0-.652.652l2.663 6.517a.5.5 0 0 0 .9.05l.541-.991 2.15 2.15a.5.5 0 0 0 .708 0l1.415-1.415a.5.5 0 0 0 .001-.709Zm-1.772 1.05-2.267-2.268a.5.5 0 0 0-.793.114l-.357.654-1.813-4.437 4.437 1.813-.653.357a.5.5 0 0 0-.2.678.5.5 0 0 0 .085.115l2.268 2.267Z" data-name="Path 25683"/></g><path fill="#d23533" d="M4895.75-141v1h1.25v-1a6 6 0 1 0-12 0v1h1.25v-1a4.75 4.75 0 1 1 9.5 0" data-name="Path 25665"/></g></g></svg>